<svg width="990" height="338" viewBox="0 0 990 338" fill="none" xmlns="http://www.w3.org/2000/svg">
<path d="M0 0H990V329.096H932.049L904.884 318.365L877.72 334.462L846.933 318.365L822.787 305.845L796.226 282.594L769.061 276.632H740.689L712.921 284.978L605.47 227.148L577.701 221.782L548.726 236.091L499.226 224.167H464.817L409.28 200.916L386.341 184.222L357.97 178.261L330.201 180.645L302.433 146.663L251.122 132.95H219.128L169.024 101.352L140.049 90.6207H109.866L82.7012 69.1579L34.4085 24.4438L0 0Z" fill="#FC7A5B"/>
<path fill-rule="evenodd" clip-rule="evenodd" d="M31.8246 25.2946L0 3.94542L2.71348 0L34.8767 21.5764L82.0059 66.3322L110.825 87.8239H139.46L168.443 99.3953L219.343 129.557H249.784L303.996 144.159L330.825 178.312L357.033 175.436L386.232 181.571L413.001 198.996L464.867 221.37H498.472L547.383 233.741L576.886 218.875L603.381 223.859L642.354 243.104L713.33 281.393L739.868 273.239H770.111L797.565 280.017L824.311 304.631L850.63 317.037L877.278 332.485L905.417 316.52L932.029 326.3H989.546V331.069H931.16L905.857 321.771L877.252 338L848.364 321.254L821.561 308.62L795.185 284.346L769.517 278.008H740.602L712.811 286.547L640.115 247.331L601.82 228.421L577.608 223.866L547.953 238.809L497.863 226.14H463.859L410.689 203.203L384.335 186.049L356.791 180.261L328.669 183.347L301.169 148.342L249.137 134.327H218.005L166.283 103.677L138.521 92.5934H109.206L78.8661 69.9672L31.8246 25.2946Z" fill="#2FFFD4"/>
</svg>
