<svg width="1167" height="506" viewBox="0 0 1167 506" fill="none" xmlns="http://www.w3.org/2000/svg">
<path d="M0 0H1167V492.671H1098.69L1066.67 476.606L1034.65 500.704L998.354 476.606L969.891 457.863L938.581 423.054L906.56 414.129H873.115L840.382 426.624L713.72 340.05L680.987 332.017L646.831 353.438L588.481 335.587H547.921L482.455 300.779L455.415 275.789L421.97 266.863L389.237 270.433L356.504 219.56L296.02 199.032H258.305L199.244 151.728L165.088 135.663H129.509L97.4872 103.532L40.5604 36.5933L0 0Z" fill="#FC7A5B"/>
<path fill-rule="evenodd" clip-rule="evenodd" d="M37.5144 37.8671L0 5.90646L3.19862 0L41.1122 32.3008L96.6675 99.302L130.639 131.476H164.394L198.559 148.799L258.558 193.952H294.442L358.346 215.812L389.973 266.94L420.866 262.635L455.285 271.82L486.84 297.906L547.98 331.4H587.593L645.248 349.92L680.027 327.665L711.258 335.126L757.199 363.937L840.864 421.257L872.147 409.05H907.798L940.16 419.197L971.688 456.045L1002.71 474.618L1034.12 497.743L1067.29 473.843L1098.66 488.484H1166.46V495.624H1097.64L1067.81 481.704L1034.09 506L1000.04 480.93L968.446 462.017L937.354 425.678L907.097 416.19H873.012L840.252 428.973L754.56 370.265L709.418 341.955L680.877 335.136L645.92 357.507L586.875 338.541H546.791L484.115 304.204L453.05 278.523L420.58 269.858L387.431 274.478L355.014 222.074L293.68 201.093H256.982L196.012 155.209L163.287 138.616H128.731L92.9664 104.744L37.5144 37.8671Z" fill="#2FFFD4"/>
</svg>
