<?xml version="1.0" standalone="no"?>
<!DOCTYPE svg PUBLIC "-//W3C//DTD SVG 20010904//EN"
 "http://www.w3.org/TR/2001/REC-SVG-20010904/DTD/svg10.dtd">
<svg version="1.0" xmlns="http://www.w3.org/2000/svg"
 width="512.000000pt" height="512.000000pt" viewBox="0 0 512.000000 512.000000"
 preserveAspectRatio="xMidYMid meet">

<g transform="translate(0.000000,512.000000) scale(0.100000,-0.100000)"
fill="#000000" stroke="none">
<path d="M1545 4855 l-25 -24 0 -459 0 -459 -45 -6 c-155 -22 -361 -146 -446
-272 l-24 -35 -358 0 -358 0 -24 -25 -25 -24 0 -831 0 -831 25 -24 24 -25 616
0 615 0 0 -615 0 -616 25 -24 24 -25 764 0 763 0 30 -31 c81 -87 260 -194 394
-237 261 -85 547 -62 795 64 450 229 670 760 513 1244 -43 134 -150 313 -237
394 l-31 30 0 763 0 764 -25 24 -24 25 -361 0 c-198 0 -360 4 -360 8 0 5 -25
36 -56 71 -105 115 -245 196 -387 223 l-67 13 0 458 0 458 -25 24 -24 25 -831
0 -831 0 -24 -25z m1575 -750 l0 -616 25 -24 24 -25 270 0 269 0 16 -47 c9
-25 15 -47 13 -48 -1 -2 -21 -12 -44 -24 -56 -28 -107 -80 -141 -144 l-27 -52
-3 -297 -3 -298 25 -25 c22 -22 34 -25 96 -25 62 0 74 3 95 25 33 32 33 78 0
110 -13 14 -31 25 -40 25 -14 0 -16 25 -13 229 3 252 4 255 72 305 39 29 133
29 172 0 68 -50 69 -53 72 -305 3 -204 1 -229 -13 -229 -9 0 -27 -11 -40 -25
-33 -32 -33 -78 0 -110 21 -22 33 -25 95 -25 62 0 74 3 96 25 l25 25 -3 298
-3 297 -34 63 c-19 35 -48 74 -64 88 -35 29 -120 74 -140 74 -8 0 -17 12 -20
28 -3 15 -9 35 -12 45 -7 16 9 17 254 17 l261 0 0 -641 c0 -352 -3 -639 -7
-637 -5 2 -44 22 -88 44 -394 204 -883 125 -1200 -191 -316 -317 -395 -806
-191 -1200 22 -44 42 -83 44 -87 2 -5 -285 -8 -637 -8 l-641 0 0 615 0 616
-25 24 -24 25 -616 0 -615 0 0 720 0 720 261 0 c249 0 260 -1 254 -19 -24 -76
-35 -173 -35 -313 0 -127 -3 -158 -14 -158 -7 0 -45 -16 -83 -35 -86 -43 -144
-103 -186 -193 -29 -61 -32 -76 -32 -162 0 -86 3 -101 32 -162 44 -93 100
-151 191 -196 72 -35 81 -37 172 -37 91 0 100 2 172 37 91 45 147 103 191 196
29 61 32 76 32 162 0 86 -3 101 -32 162 -42 90 -100 150 -186 193 -38 19 -76
35 -84 35 -13 0 -15 26 -10 183 4 155 7 191 27 245 l22 62 269 0 270 0 24 25
25 24 0 616 0 615 720 0 720 0 0 -615z m-1600 -430 l0 -75 -155 0 -156 0 33
28 c66 57 200 120 256 121 21 1 22 -3 22 -74z m1851 56 c77 -26 129 -54 178
-95 l43 -36 -156 0 -156 0 0 75 c0 87 1 87 91 56z m-2337 -943 c55 -16 138
-99 154 -154 28 -94 8 -169 -63 -239 -101 -102 -229 -102 -330 0 -102 101
-102 229 0 330 70 71 145 90 239 63z m2961 -643 c336 -59 606 -310 698 -650
29 -107 30 -316 3 -419 -136 -513 -647 -793 -1143 -626 -246 82 -461 297 -543
543 -193 572 220 1157 821 1166 42 0 116 -6 164 -14z"/>
<path d="M915 2671 c-45 -20 -70 -60 -70 -112 0 -42 5 -53 33 -81 28 -28 39
-33 82 -33 43 0 54 5 82 33 28 28 33 39 33 82 0 42 -5 54 -31 81 -33 33 -92
46 -129 30z"/>
<path d="M3700 1986 c-155 -34 -256 -89 -370 -205 -67 -67 -95 -105 -128 -171
-62 -125 -77 -192 -76 -340 1 -107 5 -137 27 -205 38 -115 90 -199 182 -290
93 -93 160 -135 282 -178 80 -28 100 -31 213 -31 148 -1 216 14 338 76 251
125 409 405 389 689 -13 177 -81 323 -212 454 -139 139 -283 203 -475 210 -67
3 -128 -1 -170 -9z m321 -178 c149 -55 254 -147 319 -282 151 -314 -3 -668
-340 -782 -81 -28 -254 -25 -334 4 -179 65 -301 191 -362 372 -14 40 -19 84
-19 160 0 158 50 282 156 390 80 81 180 136 294 161 70 15 213 3 286 -23z"/>
<path d="M3760 1693 l-1 -68 -52 -30 c-92 -53 -131 -167 -88 -260 27 -58 65
-90 187 -153 113 -59 129 -77 102 -115 -25 -33 -80 -32 -156 3 -75 34 -98 34
-132 -3 -46 -49 -16 -106 76 -148 l64 -29 0 -45 0 -45 80 0 80 0 0 45 c0 41 3
46 38 64 73 38 122 113 122 188 0 50 -41 135 -76 160 -16 11 -75 44 -131 72
-83 41 -104 56 -109 78 -6 20 -2 31 16 45 31 25 82 23 140 -7 63 -32 104 -32
135 0 50 49 24 103 -74 149 l-61 30 0 68 0 68 -80 0 -80 0 0 -67z"/>
</g>
</svg>
