<svg width="788" height="404" viewBox="0 0 788 404" fill="none" xmlns="http://www.w3.org/2000/svg">
<path d="M0 2H6.14517V68.1635M6.14517 68.1635H0M6.14517 68.1635V134.783M6.14517 134.783H0M6.14517 134.783V200.49M6.14517 200.49V266.654M6.14517 200.49H0M6.14517 266.654V334.871M6.14517 266.654H0M6.14517 334.871H0M6.14517 334.871V398.068M6.14517 403.087V398.068M6.14517 398.068H0M6.14517 398.068L220.281 398.193M220.281 398.193L328.058 398.256M220.281 398.193V403.544M328.058 398.256L434.889 398.318M328.058 398.256V403.544M434.889 398.318L542.193 398.381M434.889 398.318V403.544M542.193 398.381L648.552 398.443M542.193 398.381V403.544M648.552 398.443L756.801 398.506M648.552 398.443V403.544M788 398.524L756.801 398.506M756.801 398.506V403.544M105.886 398.524V404" stroke="black" stroke-width="3"/>
</svg>
